inDegrees=yes
name=ik_S51_A07_T01
DataType=double
version=3
OpenSimVersion=4.3-2021-08-27-4bc7ad9
endheader
time	pelvis_tilt	pelvis_list	pelvis_rotation	pelvis_tx	pelvis_ty	pelvis_tz	hip_flexion_r	hip_adduction_r	hip_rotation_r	knee_angle_r	knee_angle_r_beta	ankle_angle_r	subtalar_angle_r	mtp_angle_r	hip_flexion_l	hip_adduction_l	hip_rotation_l	knee_angle_l	knee_angle_l_beta	ankle_angle_l	subtalar_angle_l	mtp_angle_l	lumbar_extension	lumbar_bending	lumbar_rotation	arm_flex_r	arm_add_r	arm_rot_r	elbow_flex_r	pro_sup_r	wrist_flex_r	wrist_dev_r	arm_flex_l	arm_add_l	arm_rot_l	elbow_flex_l	pro_sup_l	wrist_flex_l	wrist_dev_l
13.21999999999981	-3.085300686951602	-1.663046733183286	16.39418775423832	0	0.9399999999999999	0	45.92928570199827	-10.11200322556212	-10.27559362259576	53.39430623569941	0.9319064456310941	0	0	0	45.92928570199827	-10.11200322556212	-10.27559362259576	53.39430623569941	0.9319064456310941	0	0	0	-0.9064771632040589	1.309723885861396	14.22570334092576	63.247040050683	-52.9317093142794	0.9366068486890977	145.5314678089384	49.93331822997236	0	0	31.47929153489585	-2.963063422778656	-11.44645089374535	27.0174978799787	125.7916524049994	0	0
13.23999999999981	-3.149631463443737	-1.656782743807568	16.34907487498522	0	0.9399999999999999	0	45.92854987959471	-10.11169314409212	-10.27510433753242	53.39515661197117	0.9319212874969172	0	0	0	45.92854987959471	-10.11169314409212	-10.27510433753242	53.39515661197117	0.9319212874969172	0	0	0	-0.9682817101876928	1.333735877043916	14.20526790162362	61.51034403881727	-52.84829508653201	0.07766685374507079	146.3917360986954	49.05002282956895	0	0	31.46191116747755	-2.952955755926207	-11.47819467547069	27.14583816369755	125.71207021285	0	0
13.25999999999981	-3.206972368126202	-1.651435371435936	16.29761209271133	0	0.9399999999999999	0	45.92791708145809	-10.11142732579962	-10.27468431731118	53.39588903136133	0.9319340706267809	0	0	0	45.92791708145809	-10.11142732579962	-10.27468431731118	53.39588903136133	0.9319340706267809	0	0	0	-1.024001456628484	1.35604240443955	14.16517296483392	59.71541893755268	-52.51435208502954	-0.8563099171729444	147.5096978704612	49.11950124272327	0	0	31.49460479715706	-2.94423488271188	-11.575135097097	27.18167526409249	125.6783250691018	0	0
13.27999999999981	-3.238159513656895	-1.666611006571227	16.3010112335332	0	0.9399999999999999	0	45.92753538461098	-10.11126867282594	-10.27443267285861	53.39633471263573	0.9319418492324338	0	0	0	45.92753538461098	-10.11126867282594	-10.27443267285861	53.39633471263573	0.9319418492324338	0	0	0	-1.059737908058899	1.350320185275427	14.14223975675095	59.81800099325704	-52.80410966804986	-0.6667539852746203	146.9984110944078	47.31413076389324	0	0	31.53758662470579	-2.970149263308873	-11.61616153200051	27.21406554611237	125.6438691990983	0	0
13.29999999999981	-3.291744982657292	-1.655615950676244	16.2944226022158	0	0.9399999999999999	0	45.92681672212857	-10.11096772158112	-10.27395641164597	53.39716698274785	0.9319563750861561	0	0	0	45.92681672212857	-10.11096772158112	-10.27395641164597	53.39716698274785	0.9319563750861561	0	0	0	-1.110013825937343	1.377057599112623	14.09496847992966	58.04601391413564	-52.31759416724777	-1.604710520485325	148.209471797733	48.20016055809732	0	0	31.59818482396677	-2.934041013678091	-11.7185534055968	27.21740856287438	125.6450363576524	0	0
13.3199999999998	-3.310484199062747	-1.659846100474992	16.31041340911595	0	0.9399999999999999	0	45.92611208687463	-10.11067338632957	-10.2734900787675	53.3979836937203	0.9319706293816625	0	0	0	45.92611208687463	-10.11067338632957	-10.2734900787675	53.3979836937203	0.9319706293816625	0	0	0	-1.13030388787738	1.379083706651803	14.06546506467884	56.05713918212924	-51.81454546474311	-2.745890495621461	149.4834796702341	49.02110327025348	0	0	31.60610075718448	-2.930558000004842	-11.74158776258501	27.25887411792069	125.5899261632662	0	0
13.3399999999998	-3.355626737831793	-1.671471446632154	16.30772195131085	0	0.9399999999999999	0	45.92556866629135	-10.1104466773781	-10.27313064238967	53.39861347011191	0.9319816210532476	0	0	0	45.92556866629135	-10.1104466773781	-10.27313064238967	53.39861347011191	0.9319816210532476	0	0	0	-1.179758743831183	1.381872960188941	14.00886498124214	54.35729844543037	-51.54516146128339	-3.558809812311233	149.9896082502161	47.74122768493017	0	0	31.68270408167812	-2.940325258096595	-11.81732926079676	27.27984547277507	125.5643905037622	0	0
13.3599999999998	-3.376264480437479	-1.671202046844975	16.36809188915121	0	0.9399999999999999	0	45.92514033321648	-10.11026878465401	-10.27284810872504	53.39911142669013	0.9319903120350694	0	0	0	45.92514033321648	-10.11026878465401	-10.27284810872504	53.39911142669013	0.9319903120350694	0	0	0	-1.204159707939998	1.390930909628497	13.91923065875229	52.80133719901956	-51.90890882300113	-3.790756581120486	148.6198681887981	42.435870592209	0	0	31.70819274472943	-2.942473021788854	-11.91292476918412	27.31340640642703	125.5584936610535	0	0
13.3799999999998	-3.389974419755756	-1.690024966129539	16.42871677841543	0	0.9399999999999999	0	45.92420613675262	-10.10987926515645	-10.27223010428325	53.40019185132117	0.9320091690022008	0	0	0	45.92420613675262	-10.10987926515645	-10.27223010428325	53.40019185132117	0.9320091690022008	0	0	0	-1.225188630357864	1.37578650975438	13.89075255844788	50.95354718676528	-51.63195928555548	-4.669124716512143	148.79182241659	41.04458222341891	0	0	31.76028919029748	-2.944791535224525	-11.86176371507935	27.30846237543097	125.5370079456384	0	0
13.3999999999998	-3.411101055333454	-1.706377015888572	16.49667242704902	0	0.9399999999999999	0	45.92351434383239	-10.10959174960711	-10.27177328004525	53.40099301092609	0.9320231518751404	0	0	0	45.92351434383239	-10.10959174960711	-10.27177328004525	53.40099301092609	0.9320231518751404	0	0	0	-1.253351761462269	1.366151127349059	13.83782891819773	49.35029181804263	-51.15638723743636	-5.461020951647166	149.2448061738907	40.72441178638777	0	0	31.77954010327822	-2.908094377761306	-11.9801852871259	27.35039923070001	125.637565271199	0	0
13.4199999999998	-3.472404233713548	-1.717575039398662	16.53422158156684	0	0.9399999999999999	0	45.92285181403484	-10.10931701288543	-10.27133629321944	53.40176073171131	0.9320365511305787	0	0	0	45.92285181403484	-10.10931701288543	-10.27133629321944	53.40176073171131	0.9320365511305787	0	0	0	-1.317677937548195	1.373746820336667	13.80675383668431	46.50990886019581	-50.73863463775409	-6.751911440128372	148.6890867658618	37.70712581038574	0	0	31.88857689594192	-2.841746040250947	-11.97406478713614	27.36827998324995	125.6148204869721	0	0
